<svg xmlns="http://www.w3.org/2000/svg" viewBox="0 0 64 64">
  <rect width="64" height="64" rx="14" fill="#071019"/>
  <g fill="#506777">
    <rect x="28" y="4" width="8" height="10" rx="2"/>
    <rect x="28" y="50" width="8" height="10" rx="2"/>
    <rect x="4" y="28" width="10" height="8" rx="2"/>
    <rect x="50" y="28" width="10" height="8" rx="2"/>
    <rect x="11" y="11" width="8" height="8" rx="2"/>
    <rect x="45" y="45" width="8" height="8" rx="2"/>
    <rect x="45" y="11" width="8" height="8" rx="2"/>
    <rect x="11" y="45" width="8" height="8" rx="2"/>
  </g>
  <circle cx="32" cy="32" r="20" fill="#0c1823" stroke="#6a8292" stroke-width="3"/>
  <circle cx="32" cy="32" r="14" fill="#09131d"/>
  <path d="M19 32h26M32 19v26" stroke="#56d8ff" stroke-width="3.5" stroke-linecap="round"/>
  <path d="M22 42 42 22M32 18v28" stroke="#ffca55" stroke-width="3.5" stroke-linecap="round"/>
  <circle cx="32" cy="32" r="4" fill="#f6fbff"/>
</svg>
